<?xml version="1.0" standalone="no"?><!DOCTYPE svg PUBLIC "-//W3C//DTD SVG 1.1//EN" "http://www.w3.org/Graphics/SVG/1.1/DTD/svg11.dtd"><svg t="1600069621140" class="icon" viewBox="0 0 1024 1024" version="1.1" xmlns="http://www.w3.org/2000/svg" p-id="11320" width="12" height="12" xmlns:xlink="http://www.w3.org/1999/xlink"><defs><style type="text/css"></style></defs><path d="M512 0c282.7776 0 512 229.2224 512 512s-229.2224 512-512 512S0 794.7776 0 512 229.2224 0 512 0z m231.6288 569.1904h50.176c33.1776 0 60.0064-29.3376 59.5456-62.6688 0-17.5104-7.3216-34.0992-20.736-45.9264L602.624 233.1136l-37.1712-35.7376c-15.104-14.848-34.816-26.7264-55.808-26.7264-21.1968 0-40.96 12.0832-55.808 26.9824l-263.68 264.192a65.5872 65.5872 0 0 0-19.456 46.7968c0 33.3312 27.0336 60.5696 60.2112 60.5696H286.72L286.464 634.88l0.512 81.5616c0 44.032 35.5328 79.9744 79.0528 79.9744h43.3152c41.6768 0 74.6496-34.304 74.6496-76.3904V572.928h114.8416c15.5648 0 28.2624-12.7488 28.2624-28.3648v-2.3552a28.416 28.416 0 0 0-28.2624-28.3648H484.1984V458.7008c0-15.104 12.032-27.392 27.136-27.392h90.624c14.5408 0 26.112-14.4384 26.112-28.8768a26.2656 26.2656 0 0 0-26.112-26.2656H509.1328c-43.52 0-79.104 35.9424-79.104 79.9744v261.7856a23.7056 23.7056 0 0 1-23.552 23.9104H368.384a27.3408 27.3408 0 0 1-27.0336-27.4432l-0.512-79.4624 0.512-93.9008c0-7.1168-4.7104-13.7216-9.6768-18.688-4.9152-4.9664-9.6256-7.7824-16.4864-7.7824H231.168a8.2944 8.2944 0 0 1-8.2432-8.0384c0-3.072 1.6384-5.0176 3.7888-7.168L459.264 266.24l31.5392-31.4368a26.112 26.112 0 0 1 19.0976-8.0384c7.2704 0 14.08 2.816 19.7632 8.4992l37.1712 35.7376 231.168 228.7104c0.7168 0.6656 1.1776 1.1776 1.8944 1.6384a7.6288 7.6288 0 0 1 2.0992 5.2224 8.192 8.192 0 0 1-8.192 8.0384H716.288a26.2144 26.2144 0 0 0-26.112 26.0096L689.2032 665.6v48.7424a27.1872 27.1872 0 0 1-27.0848 27.4432h-77.6704a26.112 26.112 0 0 0-26.112 26.2144c0 14.4384 11.776 28.416 26.112 28.416h79.104c43.52 0 79.104-38.0928 79.104-82.0736v-48.4864l0.9216-96.768z" fill="#FF5121" p-id="11321"></path></svg>